<svg width="190" height="52" viewBox="0 0 190 52" fill="none" xmlns="http://www.w3.org/2000/svg">
  <path d="M0.853938 44.8066C0.305349 20.9341 13.1515 5.6096 19.6431 0.931396V35.9498C19.6431 47.8042 0.853938 46.5779 0.853938 44.8066Z" fill="#2F86ED"/>
  <path d="M37.7614 44.8066C38.2904 20.9341 25.9031 5.6096 19.6433 0.931396V35.9498C19.6433 47.8042 37.7614 46.5779 37.7614 44.8066Z" fill="#0D69F3"/>
  <path d="M19.6436 19.0659C17.6729 20.4266 13.7732 24.8838 13.9397 31.8273H25.3475C25.514 24.8838 21.6143 20.4266 19.6436 19.0659Z" fill="white"/>
  <circle cx="19.3076" cy="47.6111" r="4.36573" fill="#FDC536"/>
  <path d="M75.1302 37.989L66.7902 15.819H63.1602L54.7002 37.989H59.3502L61.0602 33.189H68.8002L70.4502 37.989H75.1302ZM67.5402 29.229H62.3202L64.9602 21.849L67.5402 29.229ZM89.0966 23.529C87.7466 21.999 86.0966 21.219 84.1166 21.219C81.8066 21.219 79.8866 22.029 78.3266 23.679C76.7966 25.329 76.0166 27.369 76.0166 29.799C76.0166 32.259 76.7966 34.299 78.3266 35.949C79.8566 37.569 81.8066 38.379 84.1166 38.379C86.1866 38.379 87.8666 37.569 89.1866 35.979V37.989H93.3266V15.189H89.0966V23.529ZM89.3066 29.799C89.3066 31.149 88.8866 32.259 88.0466 33.189C87.2066 34.089 86.1266 34.539 84.7766 34.539C83.4266 34.539 82.3466 34.089 81.4766 33.189C80.6366 32.259 80.2166 31.149 80.2166 29.799C80.2166 28.479 80.6366 27.369 81.4766 26.469C82.3466 25.539 83.4266 25.089 84.7766 25.089C86.1266 25.089 87.2066 25.539 88.0466 26.469C88.8866 27.369 89.3066 28.479 89.3066 29.799ZM110.54 25.839C112.34 25.209 113.57 23.289 113.57 21.339C113.57 19.869 113 18.579 111.89 17.469C110.78 16.359 109.25 15.819 107.27 15.819H97.6101V37.989H107.72C109.85 37.989 111.56 37.359 112.82 36.129C114.11 34.899 114.74 33.369 114.74 31.539C114.74 28.809 113.27 26.529 110.54 25.839ZM106.52 19.689C108.17 19.689 109.16 20.739 109.16 22.029C109.16 23.349 108.17 24.519 106.34 24.519H101.99V19.689H106.52ZM101.99 34.089V28.239H106.85C109.01 28.239 110.15 29.589 110.15 31.179C110.15 32.739 108.98 34.089 106.85 34.089H101.99ZM121.982 37.989V30.219C121.982 26.829 123.572 25.269 125.972 25.269C126.572 25.269 127.232 25.389 127.922 25.599L128.282 21.549C127.622 21.309 126.962 21.189 126.302 21.189C124.292 21.189 122.792 22.059 121.802 23.829V21.639H117.752V37.989H121.982ZM142.182 23.589C140.742 21.999 139.002 21.219 136.962 21.219C134.652 21.219 132.702 22.029 131.172 23.649C129.642 25.239 128.862 27.279 128.862 29.739C128.862 32.199 129.612 34.269 131.142 35.919C132.672 37.569 134.622 38.379 136.962 38.379C139.032 38.379 140.772 37.629 142.182 36.099V37.989H146.202V21.639H142.182V23.589ZM142.242 29.799C142.242 31.119 141.792 32.229 140.922 33.159C140.052 34.089 138.972 34.539 137.652 34.539C136.332 34.539 135.252 34.089 134.382 33.159C133.512 32.229 133.092 31.119 133.092 29.799C133.092 28.509 133.512 27.399 134.352 26.469C135.222 25.539 136.302 25.089 137.652 25.089C138.972 25.089 140.052 25.539 140.922 26.469C141.792 27.399 142.242 28.509 142.242 29.799ZM162.815 24.519V21.669H149.375V25.179H157.145L148.955 35.109V37.989H163.115V34.479H154.775L162.815 24.519ZM181.574 29.439C181.574 26.889 180.794 24.909 179.264 23.439C177.734 21.969 175.754 21.219 173.384 21.219C170.864 21.219 168.824 22.029 167.234 23.649C165.644 25.269 164.864 27.309 164.864 29.799C164.864 32.169 165.614 34.209 167.144 35.859C168.674 37.509 170.864 38.349 173.744 38.349C176.444 38.349 178.814 37.599 180.884 36.099L179.204 33.129C177.794 34.089 175.694 34.779 173.924 34.779C171.344 34.779 169.754 33.609 169.154 31.299H181.424C181.514 30.639 181.574 30.009 181.574 29.439ZM173.384 24.729C175.544 24.729 177.074 26.019 177.464 28.149H169.154C169.664 26.019 171.254 24.729 173.384 24.729Z" fill="#0D69F3"/>
</svg>
