<svg width="216.201" height="93.2" viewBox="0 0 216.201 93.2" xmlns="http://www.w3.org/2000/svg"><g id="svgGroup" stroke-linecap="round" fill-rule="evenodd" font-size="9pt" stroke="#00000000" stroke-width="0.25mm" fill="#1979cc" style="stroke:#00000000;stroke-width:0.25mm;fill:#1979cc"><path d="M 112.3 88.8 L 115.6 81 A 20.562 20.562 0 0 0 119.417 83.373 A 24.737 24.737 0 0 0 121.2 84.15 Q 123.959 85.228 127.759 85.376 A 31.788 31.788 0 0 0 129 85.4 A 21.701 21.701 0 0 0 133.521 84.957 Q 136.422 84.339 138.622 82.859 A 12.576 12.576 0 0 0 140.15 81.65 A 11.352 11.352 0 0 0 143.057 77.157 Q 144.2 74.056 144.2 69.7 L 144.2 63.3 Q 142.2 65.7 138.45 67.85 Q 134.7 70 129.5 70 Q 123.6 70 118.3 66.95 A 22.236 22.236 0 0 1 111.008 60.112 A 27.437 27.437 0 0 1 109.7 58 A 25.181 25.181 0 0 1 106.987 50.376 A 35.033 35.033 0 0 1 106.4 43.8 A 32.06 32.06 0 0 1 107.317 35.992 A 26.682 26.682 0 0 1 109.65 29.9 A 25.706 25.706 0 0 1 115.714 22.278 A 24.448 24.448 0 0 1 118.4 20.3 Q 123.9 16.8 130.5 16.8 A 22.366 22.366 0 0 1 135.32 17.301 A 18.715 18.715 0 0 1 138.5 18.3 A 25.705 25.705 0 0 1 142.328 20.268 A 20.998 20.998 0 0 1 144.7 22 L 144.7 18 L 152.9 18 L 152.9 68.8 Q 152.9 77.4 149.9 82.8 Q 146.9 88.2 141.55 90.7 A 25.811 25.811 0 0 1 134.946 92.721 A 35.243 35.243 0 0 1 129 93.2 Q 124.4 93.2 120.05 92.1 A 27.232 27.232 0 0 1 114.75 90.183 A 23.518 23.518 0 0 1 112.3 88.8 Z M 41.6 70 L 0 70 L 0 0 L 9.5 0 L 9.5 61.5 L 41.6 61.5 L 41.6 70 Z M 58.7 67.75 A 24.559 24.559 0 0 0 63.298 69.84 Q 67.353 71.2 72 71.2 Q 79.4 71.2 85.25 67.8 Q 91.1 64.4 94.5 58.25 A 26.255 26.255 0 0 0 97.153 51.109 A 34.184 34.184 0 0 0 97.9 43.8 A 34.542 34.542 0 0 0 97.415 37.891 A 25.795 25.795 0 0 0 94.45 29.45 Q 91 23.4 85.15 20.1 A 24.848 24.848 0 0 0 80.509 18.073 A 27.738 27.738 0 0 0 72 16.8 A 31.325 31.325 0 0 0 70.42 16.839 A 26.169 26.169 0 0 0 58.8 20.1 Q 52.9 23.4 49.5 29.5 A 26.023 26.023 0 0 0 46.751 37.09 A 35.006 35.006 0 0 0 46.1 44 A 34.82 34.82 0 0 0 46.365 48.354 A 27.451 27.451 0 0 0 49.45 58.15 Q 52.8 64.3 58.7 67.75 Z M 177 67.75 A 24.559 24.559 0 0 0 181.598 69.84 Q 185.653 71.2 190.3 71.2 Q 197.7 71.2 203.55 67.8 Q 209.4 64.4 212.8 58.25 A 26.255 26.255 0 0 0 215.453 51.109 A 34.184 34.184 0 0 0 216.2 43.8 A 34.542 34.542 0 0 0 215.715 37.891 A 25.795 25.795 0 0 0 212.75 29.45 Q 209.3 23.4 203.45 20.1 A 24.848 24.848 0 0 0 198.809 18.073 A 27.738 27.738 0 0 0 190.3 16.8 A 31.325 31.325 0 0 0 188.72 16.839 A 26.169 26.169 0 0 0 177.1 20.1 Q 171.2 23.4 167.8 29.5 A 26.023 26.023 0 0 0 165.051 37.09 A 35.006 35.006 0 0 0 164.4 44 A 34.82 34.82 0 0 0 164.665 48.354 A 27.451 27.451 0 0 0 167.75 58.15 Q 171.1 64.3 177 67.75 Z M 72 63.2 Q 79.9 63.2 84.3 57.85 A 18.802 18.802 0 0 0 88.119 49.76 A 27.105 27.105 0 0 0 88.7 44 Q 88.7 38.8 86.5 34.45 A 19.198 19.198 0 0 0 82.328 28.881 A 18.17 18.17 0 0 0 80.55 27.45 Q 76.8 24.8 72 24.8 A 19.249 19.249 0 0 0 66.774 25.472 A 14.037 14.037 0 0 0 59.7 30 A 17.878 17.878 0 0 0 56.026 37.374 Q 55.3 40.306 55.3 43.8 Q 55.3 49 57.5 53.45 A 19.437 19.437 0 0 0 61.03 58.49 A 17.627 17.627 0 0 0 63.45 60.55 Q 67.2 63.2 72 63.2 Z M 190.3 63.2 Q 198.2 63.2 202.6 57.85 A 18.802 18.802 0 0 0 206.419 49.76 A 27.105 27.105 0 0 0 207 44 Q 207 38.8 204.8 34.45 A 19.198 19.198 0 0 0 200.628 28.881 A 18.17 18.17 0 0 0 198.85 27.45 Q 195.1 24.8 190.3 24.8 A 19.249 19.249 0 0 0 185.074 25.472 A 14.037 14.037 0 0 0 178 30 A 17.878 17.878 0 0 0 174.326 37.374 Q 173.6 40.306 173.6 43.8 Q 173.6 49 175.8 53.45 A 19.437 19.437 0 0 0 179.33 58.49 A 17.627 17.627 0 0 0 181.75 60.55 Q 185.5 63.2 190.3 63.2 Z M 143.9 56 L 143.9 28.8 Q 141.734 27.225 138.697 25.941 A 36.018 36.018 0 0 0 138.6 25.9 A 16.249 16.249 0 0 0 134.796 24.849 A 22.135 22.135 0 0 0 131.4 24.6 Q 127.3 24.6 123.7 26.8 Q 120.1 29 117.85 33.15 Q 115.6 37.3 115.6 43.3 A 24.32 24.32 0 0 0 116.078 48.236 A 18.311 18.311 0 0 0 117.85 53.2 A 18.576 18.576 0 0 0 120.761 57.275 A 15.802 15.802 0 0 0 123.7 59.7 Q 127.3 62 131.5 62 A 15.276 15.276 0 0 0 136.078 61.332 A 13.606 13.606 0 0 0 138.7 60.2 A 20.855 20.855 0 0 0 141.681 58.184 A 16.309 16.309 0 0 0 143.9 56 Z" vector-effect="non-scaling-stroke"/></g></svg>